<svg width="198" height="197" viewBox="0 0 198 197" fill="none" xmlns="http://www.w3.org/2000/svg">
<path fill-rule="evenodd" clip-rule="evenodd" d="M102.701 0.156405C82.9017 -0.901906 64.3868 3.41055 47.1566 13.0938C41.1678 16.6624 35.4177 20.5724 29.9068 24.8237C30.0216 24.8812 30.1369 24.9387 30.2518 24.9962C40.2273 20.0858 50.5772 16.1183 61.3015 13.0938C69.9681 11.265 78.7079 10.7475 87.5212 11.5413C86.6663 19.9113 86.3213 28.3062 86.4862 36.726C91.2651 35.7652 96.0951 35.3054 100.976 35.3461C100.918 31.2044 100.976 27.0646 101.149 22.9262C101.806 15.3438 102.323 7.75392 102.701 0.156405Z" fill="#838383"/>
<path fill-rule="evenodd" clip-rule="evenodd" d="M109.949 1.88157C109.586 1.82999 109.241 1.8875 108.914 2.05407C123.471 9.38514 137.156 18.0101 149.968 27.9288C152.27 30.1799 154.282 32.6522 156.006 35.3462C156.348 36.018 156.463 36.7079 156.351 37.4162C151.233 41.8436 146.116 46.2713 140.998 50.6986C143.884 53.4689 146.644 56.3438 149.278 59.3235C149.623 59.5536 149.968 59.5536 150.313 59.3235C157.602 53.3002 164.79 47.1479 171.875 40.8662C172.105 40.5212 172.105 40.1762 171.875 39.8312C165.097 28.4535 155.84 19.6561 144.103 13.439C133.206 8.02434 121.821 4.17187 109.949 1.88157Z" fill="#838383"/>
<path fill-rule="evenodd" clip-rule="evenodd" d="M41.9897 25.6863C40.2561 26.1504 38.646 26.8979 37.1598 27.9288C26.0899 35.5519 17.7523 45.4995 12.1475 57.771C7.56802 67.7114 4.46305 78.0613 2.8326 88.8207C10.1341 74.4375 18.6441 60.8677 28.3624 48.1111C30.9022 45.3398 33.8347 43.0973 37.1598 41.3837C37.5048 41.1536 37.8498 41.1536 38.1948 41.3837C42.6221 46.501 47.0498 51.6187 51.4771 56.736C54.2599 53.7222 57.25 50.9622 60.447 48.4561C60.6772 48.226 60.6772 47.9962 60.447 47.7661C54.2136 40.4432 48.0613 33.0834 41.9897 25.6863Z" fill="#838383"/>
<path fill-rule="evenodd" clip-rule="evenodd" d="M186.184 70.5354C186.704 72.9289 186.934 75.4012 186.874 77.9528C186.91 80.8439 186.68 83.6614 186.184 86.4052C186.04 86.6205 185.81 86.7354 185.494 86.7502C177.696 85.9488 169.876 85.6611 162.034 85.8877C162.506 86.9217 162.736 88.0143 162.724 89.1652C163.232 90.6897 163.462 92.2998 163.414 93.9951C163.756 95.9996 163.871 98.0695 163.759 100.205C167.441 100.147 171.121 100.205 174.799 100.378C182.385 100.989 189.975 101.506 197.569 101.93C198.009 97.3219 198.009 92.7221 197.569 88.1302C197.118 86.3652 196.888 84.5253 196.879 82.6102C194.966 68.0735 190.079 54.6186 182.217 42.2456C179.361 37.8952 176.371 33.64 173.247 29.4808C173.021 29.0683 172.849 29.0683 172.729 29.4808C178.594 40.7515 182.906 52.5962 185.667 65.0154C185.903 66.8515 186.075 68.6917 186.184 70.5354Z" fill="#838383"/>
<path fill-rule="evenodd" clip-rule="evenodd" d="M86.8423 46.3857C87.2781 48.5105 87.6231 50.6954 87.8773 52.9406C88.153 53.9514 88.2679 54.9864 88.2223 56.0456C88.7136 56.7407 88.9434 57.5456 88.9123 58.4605C93.6484 77.2208 105.723 86.9956 125.137 87.7853C127.158 87.8963 129.113 87.7815 131.002 87.4403C116.904 81.7927 107.704 71.6725 103.402 57.0806C109.799 57.2565 115.779 58.9815 121.342 62.2555C125.399 58.7169 129.309 54.9795 133.072 51.0431C126.023 45.9675 118.203 42.6901 109.612 41.2107C107.917 41.2583 106.307 41.0285 104.782 40.5207C98.7668 39.9135 92.7866 40.2585 86.8423 41.5557C86.8423 43.1658 86.8423 44.7756 86.8423 46.3857Z" fill="#838383"/>
<path fill-rule="evenodd" clip-rule="evenodd" d="M104.793 40.5211C106.317 41.0289 107.927 41.2587 109.623 41.2111C108.098 40.7033 106.488 40.4735 104.793 40.5211Z" fill="#838383"/>
<path fill-rule="evenodd" clip-rule="evenodd" d="M82.3686 42.9354C71.4832 46.1912 62.2832 52.0561 54.7688 60.5303C61.0868 67.9411 67.4692 75.3009 73.9161 82.61C77.1733 80.1016 79.8756 77.1115 82.0236 73.6401C79.5586 70.5424 77.0287 67.4947 74.4336 64.4977C77.6252 61.982 81.1901 60.1994 85.1285 59.1503C84.6066 56.3724 83.9742 53.6124 83.2311 50.8703C82.8947 48.228 82.607 45.5829 82.3686 42.9354Z" fill="#838383"/>
<path fill-rule="evenodd" clip-rule="evenodd" d="M86.836 46.386C86.7691 48.6837 87.114 50.8686 87.871 52.941C87.6167 50.6957 87.2717 48.5109 86.836 46.386Z" fill="#838383"/>
<path fill-rule="evenodd" clip-rule="evenodd" d="M137.533 53.9754C129.91 60.0449 122.55 66.4274 115.453 73.1227C117.715 76.4771 120.59 79.1798 124.078 81.2301C127.194 78.6299 130.357 76.1 133.565 73.6402C136.373 76.7407 138.386 80.3055 139.603 84.3351C144.836 82.5846 150.24 81.6645 155.818 81.5751C153.158 73.1169 148.845 65.6422 142.88 59.1504C140.972 57.5389 139.19 55.8139 137.533 53.9754Z" fill="#838383"/>
<path fill-rule="evenodd" clip-rule="evenodd" d="M88.2229 56.0467C88.1918 56.9617 88.4216 57.7665 88.9129 58.4617C88.9439 57.5468 88.7142 56.7419 88.2229 56.0467Z" fill="#838383"/>
<path fill-rule="evenodd" clip-rule="evenodd" d="M39.9038 104.69C40.383 106.336 40.6131 108.061 40.5938 109.865C40.5938 109.98 40.5938 110.095 40.5938 110.21C42.0959 110.848 43.7057 111.078 45.4237 110.9C45.8836 110.9 46.3439 110.9 46.8037 110.9C48.3545 110.582 49.9646 110.352 51.6337 110.21C61.1967 109.394 69.7063 106.002 77.1634 100.033C83.2699 93.9723 86.95 86.6701 88.2033 78.1256C88.2423 76.3944 88.3575 74.6694 88.5483 72.9506C88.6598 70.8151 88.5449 68.7451 88.2033 66.7407C82.8593 80.1918 73.3143 89.2189 59.5686 93.8229C58.5571 94.1517 57.5221 94.3242 56.4636 94.3404C57.185 87.7224 59.3699 81.6273 63.0186 76.0556C59.4009 72.2655 55.7212 68.5281 51.9787 64.8432C51.7486 64.6131 51.5188 64.6131 51.2887 64.8432C42.5727 76.679 38.7777 89.9614 39.9038 104.69Z" fill="#838383"/>
<path fill-rule="evenodd" clip-rule="evenodd" d="M88.2337 66.7402C88.5753 68.7446 88.6902 70.8146 88.5787 72.9501C88.6936 72.9501 88.8088 72.9501 88.9237 72.9501C88.981 70.5324 88.9237 68.1174 88.7512 65.7052C88.3928 65.9619 88.2203 66.3069 88.2337 66.7402Z" fill="#838383"/>
<path fill-rule="evenodd" clip-rule="evenodd" d="M88.9145 72.9512C88.7996 72.9512 88.6844 72.9512 88.5695 72.9512C88.3787 74.6699 88.2635 76.3949 88.2245 78.1261C88.7037 76.4808 88.9338 74.7558 88.9145 72.9512Z" fill="#838383"/>
<path fill-rule="evenodd" clip-rule="evenodd" d="M186.193 70.5352C186.628 75.824 186.628 81.1139 186.193 86.4051C186.689 83.6613 186.919 80.8437 186.883 77.9527C186.943 75.4011 186.713 72.9288 186.193 70.5352Z" fill="#838383"/>
<path fill-rule="evenodd" clip-rule="evenodd" d="M141.675 87.4413C140.98 87.9326 140.175 88.1623 139.26 88.1313C121.266 92.5931 111.491 104.093 109.935 122.631C109.823 125.225 109.938 127.755 110.28 130.221C116.177 115.829 126.642 106.629 141.675 102.621C141.92 102.309 142.265 102.194 142.71 102.276C142.812 103.047 142.696 103.737 142.365 104.346C141.72 110.652 139.765 116.517 136.5 121.941C140.29 125.904 144.142 129.813 148.057 133.671C158.067 119.1 161.114 103.173 157.2 85.8888C152.008 86.1779 146.833 86.6954 141.675 87.4413Z" fill="#838383"/>
<path fill-rule="evenodd" clip-rule="evenodd" d="M196.892 82.6104C196.901 84.5254 197.131 86.3653 197.582 88.1303C197.625 86.209 197.395 84.3691 196.892 82.6104Z" fill="#838383"/>
<path fill-rule="evenodd" clip-rule="evenodd" d="M141.692 87.4399C140.777 87.4089 139.972 87.6386 139.277 88.1299C140.191 88.1609 140.996 87.9312 141.692 87.4399Z" fill="#838383"/>
<path fill-rule="evenodd" clip-rule="evenodd" d="M131.007 87.4415C129.118 87.7827 127.163 87.8976 125.142 87.7865C127.38 88.1846 129.68 88.2422 132.042 87.959C131.785 87.6005 131.44 87.428 131.007 87.4415Z" fill="#838383"/>
<path fill-rule="evenodd" clip-rule="evenodd" d="M162.747 89.1664C162.654 90.8686 162.884 92.4784 163.437 93.9964C163.485 92.3011 163.255 90.691 162.747 89.1664Z" fill="#838383"/>
<path fill-rule="evenodd" clip-rule="evenodd" d="M11.958 122.63C11.7283 121.139 11.6134 119.587 11.6131 117.972C11.5661 115.422 11.7962 112.95 12.303 110.555C12.5476 110.243 12.8926 110.128 13.338 110.21C17.3145 110.374 21.2243 110.719 25.0679 111.245C27.2528 111.245 29.438 111.245 31.6229 111.245C33.0028 111.245 34.3828 111.245 35.7628 111.245C35.7628 110.9 35.7628 110.555 35.7628 110.21C35.1529 105.754 34.9231 101.269 35.0728 96.7549C23.5637 96.3629 12.064 95.7878 0.573158 95.0299C-0.139606 120.199 6.93283 142.854 21.7905 162.994C23.187 164.505 24.4521 166.115 25.5854 167.824C21.5538 158.962 17.9889 149.877 14.8905 140.569C13.3498 134.684 12.3724 128.705 11.958 122.63Z" fill="#838383"/>
<path fill-rule="evenodd" clip-rule="evenodd" d="M141.694 102.62C142.3 102.983 142.53 103.558 142.384 104.345C142.716 103.736 142.831 103.046 142.729 102.275C142.284 102.194 141.939 102.308 141.694 102.62Z" fill="#838383"/>
<path fill-rule="evenodd" clip-rule="evenodd" d="M39.9257 104.691C39.9064 106.496 40.1365 108.221 40.6157 109.866C40.635 108.061 40.4049 106.336 39.9257 104.691Z" fill="#838383"/>
<path fill-rule="evenodd" clip-rule="evenodd" d="M75.7836 109.175C72.7393 108.776 69.6343 108.719 66.4687 109.003C66.823 109.18 67.168 109.352 67.5036 109.52C70.2001 109.178 72.9601 109.063 75.7836 109.175Z" fill="#838383"/>
<path fill-rule="evenodd" clip-rule="evenodd" d="M75.7994 109.176C72.976 109.064 70.216 109.179 67.5195 109.521C81.5584 115.05 90.6436 125.055 94.7742 139.536C95.2655 140.231 95.4953 141.036 95.4642 141.951C95.4642 142.296 95.4642 142.641 95.4642 142.986C88.2593 142.271 81.5891 139.971 75.4544 136.086C71.6643 139.704 67.9269 143.383 64.242 147.126C64.0671 147.642 64.2396 148.045 64.7595 148.333C79.1752 157.898 94.9302 161.176 112.024 158.166C112.046 148.906 110.494 139.936 107.367 131.256C102.297 119.346 93.3846 112.216 80.6294 109.866C78.9341 109.914 77.324 109.684 75.7994 109.176Z" fill="#838383"/>
<path fill-rule="evenodd" clip-rule="evenodd" d="M75.8076 109.176C77.3322 109.684 78.9423 109.913 80.6376 109.866C79.113 109.358 77.5029 109.128 75.8076 109.176Z" fill="#838383"/>
<path fill-rule="evenodd" clip-rule="evenodd" d="M51.652 110.21C49.9829 110.352 48.3728 110.582 46.822 110.9C48.0923 110.957 49.3571 110.9 50.617 110.728C51.0437 110.648 51.3887 110.475 51.652 110.21Z" fill="#838383"/>
<path fill-rule="evenodd" clip-rule="evenodd" d="M40.5973 110.21C40.5973 110.555 40.5973 110.9 40.5973 111.245C42.275 111.355 43.8851 111.24 45.4272 110.9C43.7092 111.078 42.0994 110.848 40.5973 110.21Z" fill="#838383"/>
<path fill-rule="evenodd" clip-rule="evenodd" d="M13.3459 110.21C17.1664 111.006 21.0763 111.351 25.0758 111.245C21.2322 110.719 17.3224 110.374 13.3459 110.21Z" fill="#838383"/>
<path fill-rule="evenodd" clip-rule="evenodd" d="M35.7571 110.21C35.7571 110.555 35.7571 110.9 35.7571 111.245C34.3771 111.245 32.9971 111.245 31.6171 111.245C33.0433 111.585 34.5385 111.7 36.1021 111.59C36.1945 111.039 36.0793 110.579 35.7571 110.21Z" fill="#838383"/>
<path fill-rule="evenodd" clip-rule="evenodd" d="M58.2067 112.97C52.9073 114.466 47.5022 115.386 41.9919 115.73C45.0627 127.008 50.9853 136.438 59.7592 144.019C66.3538 138.691 72.8512 133.229 79.2515 127.632C80.5394 126.344 81.8045 125.079 83.0465 123.837C80.7889 120.544 77.9713 117.842 74.5941 115.73C71.0092 118.644 67.3868 121.519 63.7267 124.354C61.2396 120.876 59.3997 117.081 58.2067 112.97Z" fill="#838383"/>
<path fill-rule="evenodd" clip-rule="evenodd" d="M195.86 108.141C190.18 118.582 184.142 128.817 177.748 138.846C175.235 142.394 172.59 145.844 169.813 149.196C167.562 151.498 165.09 153.51 162.396 155.234C161.724 155.575 161.034 155.691 160.326 155.579C156.365 150.87 152.34 146.213 148.251 141.606C145.428 144.717 142.438 147.649 139.281 150.404C145.087 157.531 151.067 164.488 157.221 171.276C164.893 167.346 171.391 161.941 176.713 155.061C182.989 146.419 187.819 136.989 191.203 126.771C192.972 120.614 194.524 114.405 195.86 108.141Z" fill="#838383"/>
<path fill-rule="evenodd" clip-rule="evenodd" d="M124.794 114.351C121.498 116.784 118.738 119.717 116.514 123.148C116.639 123.571 116.812 123.973 117.032 124.356C119.914 127.64 122.732 130.975 125.484 134.361C121.896 136.96 118.101 139.202 114.099 141.088C115.582 146.209 116.272 151.442 116.169 156.785C127.654 153.459 137.199 147.191 144.804 137.983C138.174 130.069 131.504 122.192 124.794 114.351Z" fill="#838383"/>
<path fill-rule="evenodd" clip-rule="evenodd" d="M12.3207 110.556C11.8139 112.951 11.5838 115.423 11.6307 117.973C11.631 119.588 11.7459 121.14 11.9757 122.63C11.9405 118.6 12.0554 114.575 12.3207 110.556Z" fill="#838383"/>
<path fill-rule="evenodd" clip-rule="evenodd" d="M109.967 122.63C109.568 125.444 109.511 128.319 109.795 131.255C109.972 130.901 110.144 130.556 110.312 130.22C109.97 127.754 109.855 125.224 109.967 122.63Z" fill="#838383"/>
<path fill-rule="evenodd" clip-rule="evenodd" d="M47.839 138.156C40.73 143.884 33.7149 149.748 26.7942 155.751C26.4206 156.05 26.3633 156.394 26.6217 156.786C32.7492 167.931 41.4317 176.498 52.669 182.488C64.2985 188.709 76.6035 192.849 89.5836 194.908C79.0657 189.363 68.8307 183.384 58.8789 176.968C53.4173 173.458 48.5297 169.26 44.2166 164.376C43.1302 162.898 42.4402 161.288 42.1466 159.546C46.8516 155.703 51.3942 151.678 55.7739 147.471C52.9919 144.461 50.3468 141.356 47.839 138.156Z" fill="#838383"/>
<path fill-rule="evenodd" clip-rule="evenodd" d="M94.7893 139.535C94.7582 140.45 94.988 141.255 95.4793 141.95C95.5103 141.035 95.2806 140.231 94.7893 139.535Z" fill="#838383"/>
<path fill-rule="evenodd" clip-rule="evenodd" d="M109.607 163.34C108.083 163.848 106.473 164.078 104.777 164.03C102.362 164.03 99.9474 164.03 97.5324 164.03C97.1863 174.968 96.6112 185.893 95.8074 196.805C114.618 197.945 132.328 194.092 148.937 185.247C155.907 181.477 162.462 177.107 168.602 172.138C162.649 174.661 156.669 177.191 150.662 179.727C137.915 184.929 124.689 186.826 110.987 185.42C111.611 177.958 111.956 170.483 112.022 162.995C111.227 163.165 110.422 163.28 109.607 163.34Z" fill="#838383"/>
<path fill-rule="evenodd" clip-rule="evenodd" d="M109.623 163.341C107.927 163.293 106.317 163.523 104.793 164.031C106.488 164.078 108.098 163.849 109.623 163.341Z" fill="#838383"/>
<path d="M103.295 37.2272C92.0064 36.8185 81.7255 38.7809 72.4565 43.3984C53.797 52.6925 43.7376 69.1981 40.1456 84.6517C35.5242 104.536 40.0587 127.204 57.0981 143.813C66.7493 153.219 78.9284 159.113 95.2293 160.954C95.9011 160.988 96.5729 161.012 97.2447 161.025C97.9165 161.039 98.5882 161.042 99.26 161.036C99.9347 161.029 100.608 161.012 101.28 160.984C101.952 160.957 102.622 160.92 103.291 160.872C103.96 160.825 104.627 160.767 105.293 160.699C105.959 160.631 106.622 160.553 107.282 160.465C107.943 160.377 108.6 160.279 109.254 160.171C109.912 160.062 110.563 159.944 111.209 159.816C111.857 159.688 112.502 159.55 113.142 159.403C113.782 159.255 114.416 159.098 115.044 158.931C115.675 158.765 116.299 158.588 116.916 158.402C117.536 158.216 118.15 158.021 118.758 157.817C119.363 157.612 119.962 157.399 120.556 157.176C121.15 156.953 121.737 156.721 122.319 156.481C122.899 156.241 123.47 155.991 124.035 155.733C124.6 155.475 125.156 155.209 125.703 154.934C144.258 145.809 154.396 129.563 158.149 114.279C163.074 94.2216 158.605 71.4072 141.587 54.5615C131.958 45.0294 119.696 39.1123 103.295 37.2272Z" fill="#838383"/>
<path d="M79.558 98.168L80.8611 98.5963L80.5961 99.4242L81.0608 99.0923C80.6526 100.552 80.7741 100.525 79.0802 101.393C76.2743 101.77 74.424 101.465 71.6876 100.952C70.8363 100.598 70.0328 100.195 69.2119 99.8029L69.1163 98.9898C71.9352 98.1732 75.7357 98.7084 78.8761 98.2692C79.1019 98.2375 79.3322 98.2019 79.558 98.168Z" fill="black"/>
<path d="M129.475 96.3853C130.365 96.7423 130.873 97.1515 131.577 97.6675L131.525 98.5209C130.934 98.9635 130.834 99.0795 130.035 99.4591C126.964 100.92 123.112 100.733 119.685 100.332C118.586 99.9504 118.056 99.6194 117.283 98.9483C118.208 98.1222 125.627 97.9598 129.475 96.3853Z" fill="black"/>
<path d="M91.8988 152.112C95.9859 153.189 98.5747 154.812 103.209 155.299C106.089 155.601 109.012 155.784 111.396 154.397C113.464 153.192 113.881 152.741 116.7 152.438L117.395 152.935L117.104 154.978C116.687 155.297 116.261 155.611 115.827 155.92C112.413 158.323 108.478 158.733 103.774 158.681C100.356 158.643 95.9339 158.104 93.571 156.166C91.9509 154.84 91.7554 153.777 91.8988 152.112Z" fill="black"/>
<path d="M70.1777 74.9069C72.1931 74.7814 74.3257 74.754 76.3367 74.919C81.7356 75.3625 87.1128 76.7993 90.5876 79.8645C97.5198 85.9766 95.3047 96.4552 94.879 103.77C94.7443 106.086 95.0788 108.612 94.5402 110.887C94.3056 111.891 94.3838 111.853 93.1242 112.45L92.1513 112.037C90.3097 108.663 92.7594 102.213 92.894 98.408C92.9114 95.6117 93.1372 92.6747 92.6073 89.9009C91.8254 85.855 89.3323 81.9394 84.611 79.4454C79.4466 76.7181 70.9335 76.6747 65.6084 79.3046C62.3899 80.8948 59.445 84.4555 55.5403 84.9216L54.9192 84.2775C55.2319 83.391 55.5663 82.6204 56.1744 81.8078C59.0671 77.9338 64.5312 76.176 70.1777 74.9069Z" fill="black"/>
<path d="M119.793 80.98C124.197 80.603 128.111 80.9804 131.946 82.6605C134.626 83.8358 137.371 85.7452 137.836 88.0568C138.092 89.3329 137.54 90.3701 136.485 91.3869C134.509 93.2946 130.756 93.5738 127.707 94.0047C124.797 94.4677 122.065 94.8343 119.059 94.5915C116.718 94.4026 113.734 93.4244 112.483 91.9503C111.414 90.6959 111.097 89.5131 111.48 88.0755C112.357 84.7927 116.04 82.7065 119.793 80.98Z" fill="black"/>
<path d="M120.827 82.8894C124.107 82.8116 127.164 82.9189 129.918 84.308C131.243 84.976 131.556 84.9751 131.868 86.1465C130.261 86.6704 129.367 86.1448 127.746 85.7595C124.246 85.0737 120.002 86.6565 117.027 85.687C117.791 84.3635 119.272 83.7242 120.827 82.8894Z" fill="#838383"/>
<path d="M67.4555 81.6839C71.9292 81.3203 76.2814 80.8417 80.5293 82.2255C83.7087 83.261 86.3973 85.0057 87.4267 87.4237C88.0521 88.8992 87.7915 90.3934 86.6405 91.7112C84.4253 94.2464 81.424 94.8858 77.5279 95.6389C74.6525 95.3792 71.7512 95.1442 68.8932 94.7976C65.6529 94.4058 61.7526 93.1593 59.9153 91.1561C58.9945 90.1506 58.5557 89.0156 59.0986 87.8455C60.2584 85.3432 64.3369 82.9348 67.4555 81.6839Z" fill="black"/>
<path d="M69.4116 89.2661C70.8319 89.5593 70.8319 89.5263 71.6355 90.395C71.0361 91.6789 70.7451 91.8079 69.2553 92.687C67.9001 91.9795 67.4005 92.0729 67.1226 90.8459L69.4116 89.2661Z" fill="#838383"/>
<path d="M70.2047 83.3563C72.3981 83.1839 75.0302 83.0966 77.1368 83.6156C79.1261 84.106 81.9841 84.9882 82.9006 86.3194C80.7289 87.0596 78.075 86.3972 75.8077 85.978C71.7726 86.2356 67.9548 87.8006 64.1282 87.8761L64.1456 87.1534C66.0046 85.4812 67.5986 84.4309 70.2047 83.3563Z" fill="#838383"/>
<path d="M118.648 75.4332C121.25 75.3403 123.834 75.2964 126.414 75.57C130.636 76.017 137.395 77.9481 139.962 80.3609L138.815 81.5675L138.863 81.5106C134.558 81.9501 126.649 78.3055 120.842 78.2525C117.046 78.2182 113.701 78.9345 111.026 80.889C103.394 86.4677 104.858 96.2123 105.01 103.37C114.618 106.001 109.966 108.556 113.397 113.678C114.387 115.155 116.133 116.925 115.821 118.593C113.723 117.792 111.091 116.612 108.667 116.438C106.821 116.306 106.222 116.672 104.962 117.538C104.884 117.728 104.814 117.921 104.754 118.115C104.693 118.309 104.644 118.504 104.606 118.701C104.565 118.898 104.536 119.095 104.519 119.293C104.499 119.492 104.489 119.69 104.489 119.889C104.492 120.088 104.503 120.286 104.523 120.484C104.544 120.682 104.576 120.879 104.619 121.076C104.66 121.272 104.712 121.467 104.775 121.661C104.836 121.855 104.907 122.047 104.988 122.237C106.256 125.234 114.279 125.495 117.723 126.836C119.443 127.504 119.838 128.184 120.49 129.428C119.804 134.873 113.171 137.925 108.081 141.43C108.089 142.189 108.202 143.014 108.107 143.765C108.068 144.06 106.17 144.655 105.7 144.757C100.176 145.95 99.6587 143.407 96.779 141.287C96.3577 140.979 94.4206 140.576 93.7734 140.38C89.2258 138.856 87.6534 135.882 83.9745 134.147C82.2458 133.332 80.8733 133.798 78.9882 134.039C78.1109 133.451 77.7894 132.988 77.4419 132.169C75.2311 126.962 92.7352 126.639 95.3239 122.384C95.919 121.408 95.8799 120.117 95.2197 119.161C94.4813 118.096 93.048 117.484 91.4713 117.203C89.6601 116.879 88.2267 117.009 86.6805 117.787C85.7032 118.277 84.8128 118.716 83.7791 119.144L83.0407 118.75C83.0146 115.188 85.8292 111.812 86.3678 108.232C86.4981 107.375 86.5589 106.644 87.0149 105.833C87.4797 105.003 87.1452 105.298 88.4092 104.933C89.6992 106.94 87.597 109.298 88.7741 111.316C90.2421 113.828 96.5358 115.531 100.171 118.729C102.717 116.429 105.705 114.445 108.376 112.218C108.967 110.356 108.632 108.425 107.507 106.693C105.262 106.996 106.626 108.815 104.623 109.723C104.276 109.395 104.15 109.312 103.92 108.875C101.235 103.73 100.554 88.4327 104.428 83.3366C107.846 78.8402 112.038 76.9912 118.648 75.4332Z" fill="black"/>
<path d="M99.3158 121.182L100.918 121.657C102.022 123.042 101.522 123.741 101.231 125.287C100.845 125.09 100.354 124.865 100.063 124.599C98.8032 123.449 99.2028 122.521 99.3158 121.182Z" fill="#838383"/>
<path d="M93.4894 127.219C94.9923 126.909 95.8523 126.992 97.2292 127.426C99.8005 128.237 100.739 128.236 103.401 127.627C105.499 127.147 106.442 126.973 108.527 127.782C110.186 128.427 112.948 129.24 113.452 130.493C111.88 130.744 111.754 130.601 110.286 130.279C109 130.228 108.01 130.244 106.733 130.439C101.716 131.207 93.7501 131.263 89.1895 129.485C90.145 128.216 91.739 127.902 93.4894 127.219Z" fill="#838383"/>
<path d="M91.0472 132.813C93.1625 133.136 95.2169 133.887 97.406 134.012C101.906 134.269 108.621 132.396 112.482 134.153C112.543 135.555 112.165 135.665 110.966 136.818C108.603 137.467 105.993 138.281 103.426 138.367C99.1651 138.509 94.5654 137.985 91.3599 135.896C90.4695 134.369 90.3479 134.372 91.0472 132.813Z" fill="#838383"/>
</svg>
