<svg width="63" height="31" viewBox="0 0 63 31" fill="none" xmlns="http://www.w3.org/2000/svg">
<path d="M29.52 26.0084V22.5583H30.34C30.72 21.8183 30.95 20.9584 31.09 20.1384C31.16 19.7084 31.23 19.2483 31.25 18.8083C31.28 18.2183 31.18 17.4984 31.25 16.9384C31.25 16.8884 31.25 16.8584 31.3 16.8284H36.98V22.5084L37.03 22.5583H37.92V26.0084H36.09V24.1284L36.04 24.0184H31.36L31.33 26.0084H29.53H29.52ZM35.02 18.3284H33.09C33.12 19.4284 32.96 20.5384 32.64 21.5984C32.54 21.9284 32.4 22.2383 32.31 22.5583H35.02V18.3284Z" fill="#91854F"/>
<path d="M62.4501 11.6984V12.1684L62.3401 12.2284H57.5001C57.5001 12.2284 57.4701 12.2884 57.4801 12.3284C57.5801 13.5084 58.1701 14.0684 59.3901 13.9684C59.8801 13.9284 60.4901 13.5784 60.6501 13.0984H62.3301C61.9201 14.4284 61.0001 15.2184 59.6101 15.3684C57.4101 15.6084 55.7501 14.3184 55.6101 12.0884C55.3001 7.13843 62.3301 6.72841 62.4201 11.6284L62.4501 11.7084V11.6984ZM60.5501 11.0484C60.4201 10.3284 60.1001 9.65843 59.2901 9.58843C58.2701 9.49843 57.5701 10.0284 57.4701 11.0484H60.5501Z" fill="#91854F"/>
<path d="M11.3501 14.3783V16.8384H28.3501L28.4001 16.8883V24.0583H0.320068V16.8883L0.370056 16.8384H9.50006C9.50006 16.8384 9.47006 16.7984 9.47006 16.7884V8.34836H11.2701V9.21836C11.92 8.22836 13.1201 7.97835 14.2201 8.26835C17.3001 9.07835 17.2401 14.9383 13.8901 15.3683C12.8901 15.4983 11.98 15.1783 11.36 14.3783H11.3501ZM12.6501 9.59836C11.2901 9.75836 11.1101 11.6583 11.3801 12.7083C11.8101 14.3783 13.9701 14.4383 14.4401 12.8183C14.8301 11.4683 14.4501 9.37835 12.6501 9.58835V9.59836ZM19.1701 21.6083C19.3601 21.7883 19.7301 21.8384 19.9601 21.7184C20.7101 21.3284 20.6401 18.7183 19.4001 19.1383C18.6801 19.3883 18.7101 21.1483 19.1701 21.6083ZM23.2001 19.1083C22.5801 19.1883 22.4201 20.0184 22.8501 20.4084C23.1101 20.6384 23.6701 20.7183 23.5101 21.1883C23.3901 21.5383 22.9601 21.2784 22.7301 21.2184C22.5301 21.5284 22.6001 21.6583 22.9501 21.7483C24.0001 21.9983 24.29 20.8183 23.61 20.3083C23.46 20.1983 23.1001 20.0884 23.0601 19.8984C22.9501 19.4184 23.5301 19.4983 23.7801 19.6983C23.9601 19.3883 24.0201 19.2784 23.6301 19.1584C23.4901 19.1184 23.3401 19.0983 23.1901 19.1183L23.2001 19.1083ZM26.8101 19.6983C26.9401 19.3783 27.0501 19.2784 26.6501 19.1584C26.0101 18.9684 25.5401 19.3483 25.6301 20.0183C25.7001 20.5683 26.42 20.5884 26.5201 20.9084C26.5501 21.0084 26.5401 21.2283 26.4601 21.3083C26.2401 21.5283 25.8001 21.1783 25.7201 21.2383C25.6801 21.2683 25.6001 21.5384 25.6401 21.5984C25.9701 21.8484 26.6001 21.9083 26.8401 21.4983C27.0601 21.1183 26.9901 20.6383 26.6601 20.3583C26.4601 20.1883 26.06 20.1083 26.05 19.8183C26.04 19.3783 26.57 19.5683 26.8 19.7083L26.8101 19.6983ZM2.48007 19.1683C2.27007 19.1483 2.02005 19.1883 1.80005 19.1683L1.75006 19.2184V21.7184H2.64008C2.64008 21.7184 2.92007 21.5883 2.95007 21.5583C3.22007 21.3183 3.21006 20.5084 2.78006 20.4084C3.24006 20.0184 3.15007 19.2383 2.48007 19.1683ZM3.98007 19.5984H4.62006C4.69006 19.5484 4.78005 19.1584 4.68005 19.1584H3.59006L3.54007 19.2083V21.7083H4.69006V21.3083H3.97006V20.5884H4.56006V20.1883H3.97006V19.5984H3.98007ZM6.60007 21.7184L5.96005 19.1983L5.55005 19.1683L4.85007 21.7184L5.30005 21.6883L5.44006 21.0384H5.97006L6.12006 21.7184H6.59006H6.60007ZM7.96005 19.1683V20.9583C7.96005 20.9583 7.91008 21.1983 7.89008 21.2283C7.80008 21.4283 7.46005 21.4283 7.36005 21.2483C7.31005 21.1583 7.30005 20.9983 7.30005 20.8883C7.28005 20.3283 7.37006 19.7383 7.28006 19.1783H6.86005C6.86005 19.7483 6.81007 20.3483 6.85007 20.9183C6.89007 21.5383 7.14005 21.8483 7.80005 21.7683C8.24005 21.7183 8.38006 21.3283 8.41006 20.9483C8.45006 20.3883 8.38006 19.7783 8.41006 19.2083C8.38006 19.1083 8.07007 19.1784 7.98007 19.1584L7.96005 19.1683ZM9.49005 19.6283H9.93005C9.95005 19.5583 10.0701 19.1584 9.97006 19.1584H8.59006V19.6283H9.06006V21.7083C9.20006 21.6883 9.39006 21.7584 9.50006 21.6584V19.6183L9.49005 19.6283ZM10.1301 21.7184H10.9901V21.3484H10.7701V19.5483H10.9901L10.9601 19.1883H10.1201L10.0901 19.5483H10.3101L10.3401 21.3484L10.1001 21.3783C10.0801 21.4483 10.0601 21.6984 10.1301 21.7184ZM11.7601 19.5984H12.4001C12.4901 19.5084 12.5001 19.3384 12.5101 19.2184L12.4701 19.1683H11.3801L11.33 19.2184V21.6783C11.44 21.7783 11.63 21.7083 11.7701 21.7283V20.6584L11.8201 20.6083H12.36V20.2083H11.7701V19.6183L11.7601 19.5984ZM14.2801 19.1683C14.1901 19.1883 13.8801 19.1184 13.8501 19.2184V21.0783C13.7901 21.4983 13.2501 21.4883 13.2001 21.0483V19.2184C13.1701 19.1384 12.8101 19.1483 12.7801 19.1983C12.7901 19.7883 12.71 20.4683 12.7701 21.0483C12.8 21.3883 12.9501 21.7183 13.3201 21.7683C13.6101 21.8083 13.9501 21.7884 14.1401 21.5384C14.1901 21.4784 14.3 21.2283 14.3 21.1683V19.1584L14.2801 19.1683ZM15.2101 21.2784V19.2083C15.1201 19.1383 14.8701 19.1283 14.7701 19.2083V21.7083H15.9501L16.0101 21.2683H15.2001L15.2101 21.2784ZM17.4501 20.1883V19.2083C17.3501 19.1183 17.1701 19.1784 17.0401 19.1584C17.0101 19.1584 17.0001 19.2183 17.0001 19.2483C16.8801 19.9283 17.0701 20.8983 17.0001 21.6083L17.0201 21.6883C17.0201 21.6883 17.4201 21.7483 17.4701 21.6683V20.5984H18.0301V21.6683C18.0801 21.7483 18.4501 21.7283 18.4801 21.6883V19.2184C18.4601 19.1184 18.17 19.1883 18.08 19.1683C18.06 19.1683 18.0301 19.2383 18.0301 19.2483V20.1983H17.4701L17.4501 20.1883ZM21.2101 19.1683C21.1201 19.1883 20.8101 19.1184 20.7801 19.2184C20.8001 19.7884 20.7301 20.3983 20.7801 20.9583C20.8101 21.3483 20.9401 21.7284 21.3901 21.7784C22.0501 21.8584 22.3001 21.5483 22.3401 20.9283C22.3801 20.3583 22.32 19.7683 22.33 19.1983L21.9301 19.1683L21.8901 19.2283C21.8201 19.8183 21.9301 20.4683 21.8801 21.0483C21.8401 21.4283 21.4201 21.4883 21.2901 21.2283C21.2701 21.1983 21.2201 20.9783 21.2201 20.9583V19.1683H21.2101ZM24.7301 19.5984H25.3701C25.4201 19.5584 25.5301 19.1584 25.4301 19.1584H24.3401L24.2901 19.2083V21.7083H25.4401V21.3083H24.7201V20.5884H25.3101V20.1883H24.7201V19.5984H24.7301Z" fill="#91854F"/>
<path d="M48.94 16.8384L50.46 22.0583L52 16.8384H54.82L54.86 16.8784V24.0184H53V18.5784L51.43 23.9883L49.59 24.0184L47.96 18.5784V24.0184H46.12V16.8384H48.94Z" fill="#91854F"/>
<path d="M2.43008 5.72827V9.64832L6.15009 5.72827H8.71008L5.0401 9.5083L9.08008 15.2183H6.49008L3.6301 10.9583L2.43008 12.1583V15.2183H0.350098V5.72827H2.43008Z" fill="#91854F"/>
<path d="M62.4201 24.0184H60.46L60.3201 23.3384C59.4301 24.2984 57.41 24.4984 56.33 23.8184C55.35 23.1984 55.1601 21.6084 55.8901 20.7384C56.6201 19.8684 58.0301 19.9084 59.0401 19.7584C59.4401 19.6984 60.18 19.5784 60.24 19.0984C60.32 18.4184 59.9401 18.0384 59.2901 17.9884C58.4601 17.9284 57.7501 18.0984 57.6601 19.0484H55.7001C55.7201 17.7584 56.7501 16.9884 57.9401 16.7584C59.3201 16.4984 62.0301 16.5784 62.2001 18.4384C62.3501 20.0384 62.02 21.8784 62.28 23.4684C62.31 23.6584 62.38 23.8384 62.43 24.0184H62.4201ZM60.24 20.5384C60.08 20.6084 59.95 20.6884 59.77 20.7384C58.93 20.9784 57.2601 20.7884 57.4101 22.1384C57.5201 23.1084 59.14 23.0684 59.72 22.5884C59.99 22.3684 60.2301 21.8984 60.2301 21.5484V20.5384H60.24Z" fill="#91854F"/>
<path d="M38.91 8.34839H43.06C44.27 8.43839 45.15 8.98836 45.03 10.3184C44.98 10.8684 44.59 11.2284 44.16 11.5184C45.14 11.7984 45.51 12.6784 45.33 13.6384C45.17 14.4984 44.24 15.2184 43.37 15.2184H38.91V8.34839ZM40.77 11.1083H42.31C42.44 11.1083 42.76 11.0083 42.87 10.9183C43.22 10.6683 43.23 9.97838 42.88 9.71838C42.8 9.65838 42.52 9.54834 42.43 9.54834H40.77V11.0984V11.1083ZM40.77 12.1683V13.9584L40.82 14.0084H42.37C42.47 14.0084 42.77 13.9483 42.87 13.9183C43.61 13.6683 43.61 12.5384 42.86 12.2784C42.75 12.2384 42.45 12.1783 42.34 12.1783H40.77V12.1683Z" fill="#91854F"/>
<path d="M33.19 12.9484L35.78 8.34839H37.91V15.2184H36.11V10.6183L33.53 15.2184H31.38V8.34839H33.14L33.19 8.38837V12.9484Z" fill="#91854F"/>
<path d="M41.4201 16.6584C44.2701 16.4784 45.9101 18.7584 45.3201 21.4684C44.9001 23.4184 43.2701 24.3284 41.3501 24.2084C36.8701 23.9184 36.8101 16.9484 41.4201 16.6584ZM41.4501 18.1484C39.5101 18.3684 39.5 22.0884 41.08 22.6384C42.17 23.0184 43.1301 22.4384 43.3801 21.3484C43.7201 19.9184 43.3201 17.9384 41.4501 18.1484Z" fill="#91854F"/>
<path d="M23.4801 15.2183H21.5801C21.5101 15.0483 21.5201 14.7983 21.4601 14.6383C21.4501 14.6083 21.4701 14.5883 21.4101 14.5983C21.1001 14.9283 20.6901 15.1283 20.2601 15.2483C18.6201 15.6883 16.6501 15.2083 16.8001 13.1483C16.9301 11.3283 18.7801 11.3383 20.1401 11.1383C20.8201 11.0383 21.6001 10.9283 21.3501 10.0283C21.2401 9.63831 20.9001 9.46828 20.5201 9.42828C19.7501 9.35828 18.9701 9.53831 18.9201 10.4583H17.0201C17.1101 8.99831 18.2801 8.32829 19.6201 8.18829C20.9601 8.04829 23.1201 8.2183 23.2701 9.9483C23.3801 11.2983 23.2001 12.7783 23.2701 14.1483C23.2901 14.5083 23.3501 14.8883 23.4901 15.2183H23.4801ZM21.3701 11.8883C21.2901 11.8983 21.2301 11.9683 21.1501 11.9983C20.3901 12.3083 18.6801 12.0583 18.6601 13.2483C18.6501 14.0983 19.4801 14.1883 20.1401 14.1383C21.1701 14.0583 21.3801 13.2483 21.3701 12.3783C21.3701 12.2183 21.3701 12.0583 21.3701 11.8983V11.8883Z" fill="#91854F"/>
<path d="M47.9601 8.34839V10.7084C49.4201 10.7484 51.4501 10.3783 52.1401 12.0483C52.8301 13.7183 51.6901 15.1884 50.0001 15.2184H46.1001V8.34839H47.9701H47.9601ZM47.9601 13.9084H49.5601C49.7001 13.9084 50.1101 13.7084 50.2101 13.5984C50.4501 13.3384 50.4701 12.8084 50.3201 12.4984C50.1801 12.2184 49.7101 11.9783 49.4101 11.9783H47.9601V13.9084Z" fill="#91854F"/>
<path d="M30.7301 10.7683H28.9001C28.8101 9.88832 28.1101 9.48833 27.2701 9.58833C25.7201 9.76833 25.5701 12.5383 26.4001 13.5083C27.0001 14.2083 28.2401 14.1483 28.7201 13.3383C28.8701 13.0883 28.9001 12.8183 29.0101 12.5683H30.7501C30.8201 12.6483 30.7501 12.8583 30.7201 12.9683C30.2901 14.9183 28.4401 15.6983 26.5901 15.2883C23.0401 14.5083 23.2101 8.86833 26.7101 8.21833C28.5101 7.88833 30.6601 8.68831 30.7301 10.7583V10.7683Z" fill="#91854F"/>
<path d="M54.99 8.34839H53.12V15.2184H54.99V8.34839Z" fill="#91854F"/>
<path d="M10.0201 5.69836L10.5301 7.03839L11.1101 5.69836H11.6101V7.37836C11.5001 7.36836 11.3501 7.41837 11.2701 7.32837V6.06836L10.7301 7.34839C10.7301 7.34839 10.4601 7.38835 10.4001 7.36835C10.3401 7.33835 9.9501 6.30838 9.8801 6.14838C9.8601 6.10838 9.86009 6.03834 9.81009 6.04834V7.38837C9.70009 7.37837 9.55009 7.42838 9.47009 7.33838V5.70837H10.0301L10.0201 5.69836Z" fill="#91854F"/>
<path d="M16.21 5.69836V7.09839H16.46V7.77838L16.13 7.74835L16.1 7.36835H14.59L14.58 7.74835C14.55 7.79835 14.3 7.79835 14.27 7.74835V7.14838L14.31 7.09839C14.53 7.09839 14.53 7.11835 14.62 6.93835C14.8 6.57835 14.85 6.09836 14.85 5.69836H16.22H16.21ZM15.83 5.94836H15.15C15.15 6.33836 15.04 6.73839 14.9 7.09839H15.83V5.94836Z" fill="#91854F"/>
<path d="M56.0101 5.69836V7.09839H56.2601V7.77838H55.9501V7.37836H54.4001V7.77838L54.0901 7.76837C54.0501 7.73837 54.0501 7.24834 54.0601 7.17834C54.0601 7.13834 54.0701 7.11834 54.1101 7.10834L54.3701 7.08838C54.5401 6.64838 54.6701 6.18837 54.6501 5.70837H56.0201L56.0101 5.69836ZM55.6701 5.94836H54.9901C54.9201 6.33836 54.8901 6.73839 54.7101 7.09839H55.6701V5.94836Z" fill="#91854F"/>
<path d="M22.47 5.69843C22.91 5.75843 23.15 6.20844 22.7 6.45844C23.23 6.66844 23.12 7.23843 22.58 7.32843C22.5 7.33843 22.28 7.36841 22.22 7.36841H21.32L21.27 7.31842V5.68842C21.64 5.72842 22.1 5.63842 22.47 5.68842V5.69843ZM21.65 6.38843H22.38C22.54 6.38843 22.66 6.15844 22.53 6.01844C22.51 5.99844 22.36 5.92841 22.34 5.92841H21.64V6.39844L21.65 6.38843ZM21.65 7.12842H22.41C22.67 7.12842 22.79 6.7884 22.56 6.6684C22.53 6.6584 22.36 6.59845 22.35 6.59845H21.65V7.12842Z" fill="#91854F"/>
<path d="M33.82 5.69843C34.26 5.75843 34.48 6.20844 34.05 6.45844C34.59 6.67844 34.43 7.24844 33.9 7.33844C33.84 7.34844 33.61 7.37842 33.57 7.37842H32.67L32.62 7.32843V5.69843C32.99 5.73843 33.46 5.64843 33.82 5.69843ZM33 6.38843H33.73C33.73 6.38843 33.87 6.3084 33.88 6.2984C34 6.1584 33.83 5.92841 33.69 5.92841H32.99V6.39844L33 6.38843ZM33 7.12842H33.76C33.76 7.12842 33.97 7.02841 34 6.98841C34.12 6.77841 33.9 6.59845 33.7 6.59845H33V7.12842Z" fill="#91854F"/>
<path d="M13.94 6.63845H12.42C12.4 7.15845 13.09 7.32847 13.43 7.03847C13.51 6.97847 13.55 6.82844 13.62 6.81844H13.92C13.71 7.66844 12.17 7.60846 12.06 6.70846C11.89 5.29846 14.1 5.26845 13.95 6.63845H13.94ZM13.56 6.38845C13.55 5.70845 12.47 5.73845 12.41 6.38845H13.56Z" fill="#91854F"/>
<path d="M32.0401 7.15841H32.2601V7.37838C32.0301 7.37838 31.7601 7.44841 31.6801 7.15841C31.4101 7.35841 31.1101 7.44841 30.7801 7.40841C30.3901 7.35841 30.1101 6.98839 30.3701 6.63839C30.6001 6.33839 31.1901 6.42841 31.5101 6.34841C31.6601 6.31841 31.6801 6.19838 31.6501 6.06838C31.5801 5.77838 30.6901 5.78838 30.6901 6.19838H30.3801C30.3301 6.15838 30.4201 5.95841 30.4501 5.90841C30.6801 5.54841 31.7401 5.53841 31.9601 5.90841C31.9701 5.92841 32.0301 6.04837 32.0301 6.05837V7.15841H32.0401ZM30.7101 7.0884C30.8801 7.2584 31.2701 7.17838 31.4601 7.06838C31.7101 6.92838 31.6601 6.76838 31.6601 6.50838C31.4501 6.63838 30.7701 6.56836 30.6601 6.79836C30.6101 6.89836 30.6301 7.0184 30.7101 7.0884Z" fill="#91854F"/>
<path d="M44.66 5.69836V6.90839L45.58 5.72833L46.03 5.69836V7.32837L45.98 7.36835C45.98 7.36835 45.92 7.36835 45.89 7.36835C45.81 7.36835 45.7 7.38836 45.66 7.31836V6.11835L44.71 7.32837C44.63 7.37837 44.37 7.38835 44.29 7.30835V5.67834H44.66V5.69836Z" fill="#91854F"/>
<path d="M20.9 7.15837V7.37835C20.69 7.37835 20.38 7.43837 20.34 7.15837C19.95 7.50837 18.85 7.56836 18.94 6.82836C18.97 6.60836 19.23 6.45832 19.43 6.41832C19.6 6.37832 20.22 6.38838 20.29 6.28838C20.35 6.20838 20.34 6.08835 20.29 6.00835C20.17 5.81835 19.64 5.82836 19.47 5.95836C19.38 6.02836 19.38 6.16834 19.32 6.18834H19.03C18.98 5.49834 20.39 5.48832 20.63 5.91832C20.76 6.15832 20.63 6.81833 20.68 7.10833C20.71 7.18833 20.83 7.15837 20.89 7.15837H20.9ZM20.31 6.53838C20.07 6.61838 19.16 6.53832 19.3 6.97832C19.4 7.29832 19.96 7.19838 20.17 7.03838C20.37 6.88838 20.31 6.76838 20.31 6.53838Z" fill="#91854F"/>
<path d="M56.95 5.69836V6.90839C57.01 6.91839 57.01 6.88834 57.04 6.85834C57.34 6.52834 57.59 6.06833 57.9 5.72833L58.35 5.69836V7.32837C58.26 7.41837 58.1 7.35836 57.98 7.37836V6.13837L57.03 7.35834L56.61 7.38837V5.70837H56.95V5.69836Z" fill="#91854F"/>
<path d="M17.1401 5.69836V6.90839C17.2101 6.92839 17.1901 6.88835 17.2101 6.86835C17.5201 6.50835 17.8001 6.07836 18.0701 5.69836H18.5101V7.37836H18.1701V6.13837C18.1001 6.11837 18.1201 6.15834 18.1001 6.17834C17.7901 6.54834 17.5201 6.99835 17.2101 7.36835L16.8101 7.38837V5.70837H17.1501L17.1401 5.69836Z" fill="#91854F"/>
<path d="M35.48 5.64845C36.14 5.56845 36.69 5.89842 36.64 6.61842C36.56 7.70842 34.82 7.63844 34.71 6.70844C34.65 6.14844 34.9 5.71845 35.48 5.64845ZM35.22 6.05842C34.91 6.38842 35.04 7.0984 35.54 7.1684C36.08 7.2384 36.36 6.85846 36.26 6.34846C36.17 5.87846 35.52 5.73842 35.22 6.05842Z" fill="#91854F"/>
<path d="M50.32 5.64831C50.89 5.57831 51.44 5.83831 51.48 6.45831C51.52 7.15831 50.99 7.46832 50.34 7.40832C49.27 7.30832 49.24 5.77831 50.32 5.64831ZM50.38 5.89831C49.99 5.95831 49.85 6.30828 49.9 6.67828C50 7.36828 51.03 7.30828 51.1 6.67828C51.16 6.17828 50.91 5.81831 50.38 5.89831Z" fill="#91854F"/>
<path d="M53.65 5.69836V7.32837L53.6 7.36835C53.6 7.36835 53.54 7.36835 53.51 7.36835C53.43 7.36835 53.32 7.38836 53.28 7.31836V5.93835H52.47C52.4 6.29835 52.54 7.01839 52.25 7.28839C52.1 7.42839 51.85 7.42835 51.67 7.36835V7.12836C51.76 7.17836 51.86 7.16836 51.96 7.12836C52 7.10836 52.04 6.95839 52.05 6.90839C52.08 6.72839 52.09 6.43835 52.1 6.24835C52.11 6.05835 52.1 5.88836 52.1 5.69836H53.65Z" fill="#91854F"/>
<path d="M59.2201 5.69836V6.34839H60.1801V5.69836H60.5501V7.32837C60.4601 7.41837 60.3001 7.35836 60.1801 7.37836V6.59839H59.2201V7.32837C59.1301 7.41837 58.9701 7.35836 58.8501 7.37836V5.69836H59.2201Z" fill="#91854F"/>
<path d="M39.5601 5.69836V6.34839H40.5201V5.69836H40.8901V7.32837L40.8401 7.36835C40.7801 7.36835 40.7201 7.37835 40.6601 7.36835C40.6101 7.36835 40.5601 7.36836 40.5201 7.31836V6.58838H39.5601V7.31836L39.5101 7.35834C39.5101 7.35834 39.4501 7.35834 39.4201 7.35834C39.3401 7.35834 39.2301 7.37835 39.1901 7.30835V5.67834H39.5601V5.69836Z" fill="#91854F"/>
<path d="M49.3 5.69835L48.6201 6.51836L49.33 7.37834L48.8901 7.35832L48.3501 6.74834L47.8701 7.35832L47.4301 7.37834L48.1401 6.51836L47.4901 5.69835C47.6201 5.71835 47.8101 5.66837 47.9201 5.71837C48.0201 5.75837 48.3501 6.25835 48.4001 6.25835L48.8501 5.71837H49.2901L49.3 5.69835Z" fill="#91854F"/>
<path d="M41.7701 5.69836V6.31836H42.6301C42.6301 6.31836 42.8701 6.40835 42.9201 6.43835C43.3301 6.69835 43.1701 7.22837 42.7101 7.32837C42.6601 7.33837 42.4501 7.36835 42.4101 7.36835H41.4301V5.68835H41.7701V5.69836ZM41.7701 7.12836H42.5301C42.5301 7.12836 42.7301 7.00838 42.7501 6.96838C42.8001 6.86838 42.7801 6.69836 42.6801 6.62836C42.6401 6.59836 42.4401 6.52838 42.4001 6.52838H41.8101L41.7601 6.57837V7.11835L41.7701 7.12836Z" fill="#91854F"/>
<path d="M23.8301 5.69836V6.31836H24.6901C24.6901 6.31836 24.9301 6.40835 24.9801 6.43835C25.3901 6.69835 25.2301 7.22837 24.7701 7.32837C24.7201 7.33837 24.5101 7.36835 24.4701 7.36835H23.4901V5.68835H23.8301V5.69836ZM23.8301 7.12836H24.5901C24.5901 7.12836 24.7901 7.00838 24.8101 6.96838C24.8601 6.86838 24.8401 6.69836 24.7401 6.62836C24.7001 6.59836 24.5001 6.52838 24.4601 6.52838H23.8701L23.8201 6.57837V7.11835L23.8301 7.12836Z" fill="#91854F"/>
<path d="M27.6901 6.25837C27.6101 5.77837 26.9001 5.7784 26.7001 6.1584C26.2701 6.9884 27.2701 7.65835 27.7101 6.79835H28.0301C27.9101 7.29835 27.4701 7.46834 26.9901 7.41834C26.0601 7.32834 26.0001 5.96837 26.8501 5.69837C27.3001 5.54837 27.9301 5.69834 28.0301 6.22834C28.0201 6.29834 27.7601 6.26838 27.7001 6.26838L27.6901 6.25837Z" fill="#91854F"/>
<path d="M37.3201 5.69836V6.27838C37.3201 6.27838 37.4001 6.39833 37.4301 6.41833C37.6301 6.55833 38.0901 6.49836 38.3201 6.44836V5.69836H38.6601V7.37836H38.3201V6.69836C37.9701 6.71836 37.2501 6.82833 37.0301 6.47833C37.0101 6.44833 36.9501 6.29838 36.9501 6.27838V5.69836H37.3201Z" fill="#91854F"/>
<path d="M30.0101 5.69836V5.89838L29.9601 5.94836H29.2901V7.32837L29.2401 7.36835C29.2401 7.36835 29.1801 7.36835 29.1501 7.36835C29.0701 7.36835 28.9601 7.38836 28.9201 7.31836V5.93835H28.2001V5.68835H30.0001L30.0101 5.69836Z" fill="#91854F"/>
<path d="M62.3001 5.69836L62.2901 5.89838L62.2501 5.94836H61.4301V7.37836H61.0801V5.69836H62.3001Z" fill="#91854F"/>
<path d="M25.8501 5.69836V7.32837L25.8001 7.36835C25.8001 7.36835 25.7401 7.36835 25.7101 7.36835C25.6301 7.36835 25.5201 7.38836 25.4801 7.31836V5.68835H25.8501V5.69836Z" fill="#91854F"/>
<path d="M43.79 5.69836V7.32837L43.74 7.36835C43.74 7.36835 43.68 7.36835 43.65 7.36835C43.57 7.36835 43.46 7.38836 43.42 7.31836V5.68835H43.79V5.69836Z" fill="#91854F"/>
<path d="M44.75 5.01839C44.75 5.01839 44.77 5.08837 44.79 5.11837C44.93 5.28837 45.27 5.30838 45.45 5.19838C45.58 5.11838 45.52 4.9284 45.78 5.0284C45.65 5.6084 44.66 5.58838 44.54 5.00838H44.75V5.01839Z" fill="#91854F"/>
<path d="M2.18005 21.3083V20.6283C2.87005 20.4983 2.86005 21.4483 2.18005 21.3083Z" fill="#91854F"/>
<path d="M2.18005 20.2283V19.5784C2.77005 19.4884 2.76005 20.3183 2.18005 20.2283Z" fill="#91854F"/>
<path d="M19.8001 21.2984C19.7101 21.3884 19.5901 21.3984 19.4901 21.2984C19.2501 21.0684 19.2701 19.9184 19.4501 19.6384C19.5601 19.4784 19.7401 19.4684 19.8401 19.6384C20.0101 19.9184 20.0401 21.0585 19.8001 21.2885V21.2984Z" fill="#91854F"/>
<path d="M5.88013 20.6883H5.51013L5.69012 19.7283L5.88013 20.6883Z" fill="#91854F"/>
</svg>
