<svg width="20" height="20" viewBox="0 0 20 20" fill="none" xmlns="http://www.w3.org/2000/svg">
<path fill-rule="evenodd" clip-rule="evenodd" d="M19 18C19.5523 18 20 18.4477 20 19C20 19.5523 19.5523 20 19 20H1C0.447715 20 0 19.5523 0 19C0 18.4477 0.447715 18 1 18H19ZM10 16L9.918 15.996L9.79927 15.9798L9.68786 15.9503L9.57678 15.9063L9.47929 15.854L9.40484 15.8037L9.29289 15.7071L5.29289 11.7071C4.90237 11.3166 4.90237 10.6834 5.29289 10.2929C5.65338 9.93241 6.22061 9.90468 6.6129 10.2097L6.70711 10.2929L9 12.585V1C9 0.447715 9.44771 0 10 0C10.5523 0 11 0.447715 11 1V12.585L13.2929 10.2929C13.6534 9.93241 14.2206 9.90468 14.6129 10.2097L14.7071 10.2929C15.0676 10.6534 15.0953 11.2206 14.7903 11.6129L14.7071 11.7071L10.7071 15.7071L10.6631 15.7485L10.5953 15.8037L10.4841 15.8753L10.4231 15.9063L10.3417 15.9401L10.266 15.9642L10.1175 15.9932L10 16Z" fill="#91844F"/>
</svg>
