<svg width="68" height="31" viewBox="0 0 68 31" fill="none" xmlns="http://www.w3.org/2000/svg">
<path d="M0 8.99988H13.53V22.1071H0V8.99988ZM8.98001 13.4077H4.54001V17.7089H8.98001V13.4077Z" fill="#91854F"/>
<path d="M67.57 13.243V22.049C67.29 22.0877 66.4701 22.1749 66.2401 22.0974C66.0801 22.049 66.12 21.4677 66.07 21.4677C65.61 21.8649 65.2301 22.1555 64.5901 22.2136C62.0301 22.4461 61.13 20.0339 61.51 17.9608C61.89 15.8877 64.0401 14.8124 65.9301 16.0621V13.2817C65.9801 13.2042 66.0401 13.2043 66.1201 13.2043C66.5401 13.1558 67.16 13.2043 67.57 13.2624V13.243ZM64.22 16.8661C62.64 17.1277 62.59 20.7605 64.38 20.9349C65.33 21.0318 65.82 20.402 65.98 19.5786C66.21 18.358 65.91 16.5949 64.23 16.8758L64.22 16.8661Z" fill="#91854F"/>
<path d="M20.29 13.3496L22.67 19.5109L25.11 13.3496H27.16V22.1071H25.66L25.57 22.0296V16.004L23.28 21.9134L22.05 21.9521L19.72 15.8974V22.1071H18.21L18.13 22.0296V13.4368L18.21 13.3496H20.29Z" fill="#91854F"/>
<path d="M41.1801 13.4368C41.2301 13.3593 41.2901 13.3593 41.3701 13.3593C42.2701 13.2527 44.16 13.3012 45.1 13.3593C45.96 13.4174 46.8501 13.6499 47.4001 14.3184C48.0601 15.1224 48.1201 16.3915 47.4001 17.1762C47.3001 17.2827 46.82 17.5734 46.88 17.6509C48.85 18.6293 48.3401 21.4484 46.2101 21.9618C45.2901 22.1846 42.3501 22.2234 41.3701 22.1071C41.2901 22.1071 41.2301 22.1071 41.1801 22.0296V13.4368ZM42.82 16.905H45.31C45.31 16.905 45.6901 16.7693 45.7401 16.7402C46.3301 16.4302 46.39 15.4615 45.91 15.0546C45.76 14.919 45.2801 14.7349 45.0901 14.7349H42.9001L42.82 14.8124V16.905ZM42.82 20.6734H45.0901C45.1701 20.6734 45.6 20.5668 45.7 20.5281C46.7 20.1503 46.64 18.7359 45.7 18.3871C45.6 18.3484 45.1701 18.2418 45.0901 18.2418H42.9001L42.82 18.3193V20.6831V20.6734Z" fill="#91854F"/>
<path d="M30.8701 15.5487C34.9401 15.1612 35.44 21.1868 32.16 22.1071C27.43 23.4343 26.5901 15.9555 30.8701 15.5487ZM31.2001 16.8758C29.6701 16.8952 29.52 18.8618 29.88 19.9274C30.36 21.3709 32.38 21.1771 32.63 19.569C32.79 18.5324 32.6401 16.8468 31.2001 16.8758Z" fill="#91854F"/>
<path d="M50.43 15.6843V20.0049C50.43 20.2277 50.69 20.5571 50.89 20.6734C51.71 21.0996 52.52 20.6346 52.74 19.8112C52.76 19.7434 52.83 19.4624 52.83 19.4237V15.6843H54.42V22.1071H53.11L52.9999 21.3128C52.0999 22.6399 49.74 22.5528 49.05 21.0803C49.01 21.0028 48.84 20.5377 48.84 20.4893V15.6843H50.43Z" fill="#91854F"/>
<path d="M40.14 17.6023H38.69C38.58 17.4667 38.59 17.3117 38.49 17.1567C38.11 16.5561 36.77 16.5367 36.43 17.1567C35.82 18.2611 37.95 18.1739 38.57 18.3095C39.46 18.4936 40.21 18.9683 40.3 19.9177C40.57 22.8433 35.26 23.0564 34.68 20.4311C34.66 20.3148 34.6 20.063 34.69 19.9952H36.06C36.2 20.2761 36.21 20.5473 36.47 20.7702C36.91 21.1383 37.86 21.1383 38.37 20.9058C38.98 20.6249 38.99 19.8208 38.32 19.6076C37.15 19.2492 35.14 19.6755 34.86 17.922C34.37 14.9383 40.08 14.6573 40.15 17.6023H40.14Z" fill="#91854F"/>
<path d="M61.2201 20.7799V22.0296C60.3801 22.3783 59.1201 22.0974 58.8301 21.1674C58.8001 21.0608 58.7101 20.683 58.7101 20.5958V13.2721L58.7901 13.1946H60.2701L60.3501 13.2721V20.4892C60.3501 20.7508 61.0201 20.8283 61.2301 20.7799H61.2201Z" fill="#91854F"/>
<path d="M57.39 15.6843H55.8V22.1071H57.39V15.6843Z" fill="#91854F"/>
<path d="M57.44 13.1946V14.8415H55.75V13.2721L55.83 13.1946H57.44Z" fill="#91854F"/>
</svg>
