<svg width="87" height="32" viewBox="0 0 87 32" fill="none" xmlns="http://www.w3.org/2000/svg">
<path d="M0 8.44L23.09 0.0799561L31.46 23.13L8.37001 31.53L0 8.58997V8.44ZM22.06 6.58997L23.09 5.27997L22.69 4.21997L21.56 5.52997L21.92 6.53998L22.07 6.58997H22.06ZM23.28 5.84998C23.08 6.10998 22.2 6.95997 22.2 7.21997L23.8 11.55C23.98 11.21 24.88 10.46 24.87 10.12L23.28 5.85999V5.84998ZM21.89 8.53998C21.18 7.88998 20.19 9.25995 19.92 9.81995C19.75 10.1799 19.62 10.63 19.61 11.03L19.35 10.5099L18.29 11.8199L19.87 16.21L20.99 14.84C20.68 13.66 19.46 11.98 20.35 10.84C20.5 10.65 20.82 10.37 21.05 10.58L22.12 13.47L23.27 12.14L23.25 11.93C22.82 11.2 22.43 9.03997 21.87 8.52997L21.89 8.53998ZM14.31 14.34C15.07 15.15 16.94 16.3 18.01 15.54C19.08 14.78 17.91 12.54 17.21 11.77C16.47 10.96 14.9 10.02 13.78 10.42C12.19 10.98 13.55 13.53 14.31 14.34ZM19.39 16.73L13.06 15.65L11.92 17.03L18.18 18.13C18.29 18.13 18.33 18.05 18.4 17.99C18.62 17.79 19.09 17.2 19.29 16.95C19.35 16.88 19.43 16.86 19.4 16.73H19.39ZM19.02 20.28L18.43 18.61C17.35 18.78 16.2 18.23 15.13 18.2C13.99 18.17 14.23 19.04 14.45 19.85C14.8 21.17 15.63 22.56 16.98 23.02C17.07 22.99 17 22.86 16.98 22.79C16.92 22.57 16.58 21.58 16.5 21.44C16.46 21.38 16.12 21.26 15.98 21.13C15.66 20.82 15.48 20.27 15.54 19.83C15.8 19.8 16.03 19.83 16.21 20.04C16.56 20.43 16.91 21.5 17.23 22.03C17.66 22.74 18.31 23.54 19.21 23.58C20.86 23.65 19.43 20.85 18.72 20.39L19.02 20.28ZM11.48 21.61C11.3 21.31 11.9 20.37 12.26 20.36C12.42 20.36 12.51 20.51 12.59 20.48C12.66 20.45 13.49 19.46 13.52 19.4C13.73 18.94 13.08 18.65 12.65 18.75C12.13 18.87 11.08 20.2 10.81 20.68C10.42 21.36 9.96001 22.73 10.57 23.39C11.18 24.05 12.3 22.55 12.8 22.29C13.54 21.91 13.24 22.9 12.97 23.28C12.68 23.68 12.39 23.94 11.97 23.54C11.65 24.08 10.38 24.88 11.39 25.37C12.06 25.7 13.01 24.64 13.4 24.15C14.08 23.28 14.71 21.91 14.32 20.81C13.81 19.36 12.41 21.39 11.76 21.63C11.65 21.67 11.59 21.64 11.49 21.6L11.48 21.61ZM7.99001 20.88L7.55 19.81L5.85001 19.55L6.29001 20.62L7.99001 20.88ZM8.20001 21.49L6.52 21.18L8.07001 25.5099L9.78 25.84L8.21001 21.49H8.20001Z" fill="#91854F"/>
<path d="M40.86 0L41.86 0.519958L41.97 0.47998L42.34 0H42.56L42.52 2.37C42.19 2.44 42.08 1.63 41.95 1.38C41 -0.429995 38.42 0.249949 38.63 2.25995C38.76 3.46995 40.65 3.31996 41.54 3.64996C43.35 4.30996 43.76 6.31999 42.89 7.92999C42.02 9.53999 39.95 9.67998 38.67 8.53998C38.33 8.73998 38.28 9.22999 37.82 9.10999V6.29999C38.29 6.20999 38.33 6.98999 38.5 7.35999C39.65 9.90999 42.8 9.03995 42.55 6.63995C42.4 5.16995 41.03 5.31996 39.96 5.07996C37.02 4.40996 37.18 1.01995 39.74 0.00994873H40.85L40.86 0Z" fill="#91854F"/>
<path d="M58.1099 31.31C58.3399 31.26 58.7399 31.35 58.9999 31.31V26.2H58.0399V25.83L60.2599 25.76V27.24L60.7499 26.43C61.3699 25.46 63.3799 25.28 63.9199 26.36C63.9599 26.43 64.1099 26.87 64.1099 26.91V31.31H64.9999V31.61H61.9699V31.31H62.7799V26.83C62.7799 26.66 62.5699 26.26 62.3899 26.18C61.5499 25.82 60.7499 26.81 60.4999 27.51C60.4699 27.61 60.3399 28.03 60.3399 28.09V31.31H61.2299V31.61H58.1599C58.0799 31.61 58.1199 31.4 58.1199 31.31C58.0299 31.33 57.5599 31.77 57.3799 31.83H56.5699C56.2699 31.65 56.1199 31.53 55.9699 31.2C55.9399 31.14 55.8599 30.64 55.7499 30.72C55.5399 31.29 55.0399 31.63 54.4899 31.83H53.5299C52.2399 31.37 52.1099 29.75 53.1999 28.94C53.9499 28.39 54.9399 28.4 55.8199 28.27C55.7699 27.71 55.8999 27 55.8199 26.46C55.6799 25.57 53.8999 26.06 53.8999 26.46C53.8999 26.68 54.2699 26.77 54.1799 27.26C53.9799 28.31 52.2599 27.63 53.0899 26.46C53.7099 25.59 55.4999 25.48 56.4399 25.78C56.9399 25.94 57.1199 26.24 57.1699 26.76C57.2899 28.08 57.0599 29.56 57.1799 30.89C57.3499 31.4 57.6399 31.25 58.0099 31.02C58.2499 31.14 58.1299 31.21 58.1299 31.31H58.1099ZM55.8099 28.65C54.5499 28.59 53.3499 29.21 53.8499 30.65C54.1199 31.41 54.8999 31.43 55.3699 30.84C55.4899 30.69 55.8099 29.97 55.8099 29.8V28.65Z" fill="#91854F"/>
<path d="M67.14 31.8299C65.31 31.2999 64.31 29.34 65.03 27.54C66.04 25.01 69.36 25.01 70.36 27.54C71.09 29.39 70.12 31.2599 68.25 31.8299H67.14ZM66.79 31.2099C67.41 31.8299 68.61 31.54 68.91 30.68C69.14 29.99 69.14 27.72 68.97 27C68.63 25.61 66.8 25.59 66.43 26.94C66.24 27.63 66.24 29.87 66.45 30.56C66.5 30.73 66.67 31.0999 66.79 31.2099Z" fill="#91854F"/>
<path d="M86.6 18.73C85.05 22.49 80.06 19.9099 81.44 16.3399C82.56 13.4299 86.46 13.7699 86.53 17.0299H82.75V19.0699C82.75 19.5499 83.29 20.1199 83.77 20.1999C84.8 20.3799 85.6 19.7899 86.12 18.9499C86.28 18.6899 86.21 18.34 86.61 18.44V18.74L86.6 18.73ZM82.75 16.73H85.01C85.21 16.4 85.16 15.5499 84.99 15.1999C84.64 14.4799 83.33 14.51 82.94 15.18C82.69 15.62 82.76 16.24 82.75 16.73Z" fill="#91854F"/>
<path d="M51.44 22.73V31.21C51.56 31.44 52.34 31.2599 52.4 31.3199V31.62H43V31.3199C43.07 31.2499 43.98 31.45 44.11 31.21V23.7L41.47 31.61H41.19L38.56 23.63L38.63 31.33H39.67V31.63H37.08V31.33H38.19V23.19H37.2L37.08 22.8199H39.78L41.93 29.11L43.89 22.8199H46.63L46.51 23.18H45.6V31.33H47.38V26.22H46.34L46.46 25.86L48.71 25.78V31.33H50.12V23.19H49.16V22.8199L51.46 22.75L51.44 22.73Z" fill="#91854F"/>
<path d="M53.89 11.85L53.9201 11.55C53.9601 11.5 54.0101 11.49 54.0701 11.48C54.4201 11.41 56.0501 11.43 56.4401 11.48C56.5201 11.48 56.6001 11.48 56.6601 11.56L58.7701 17.85L60.8101 11.48H63.4401V11.85H62.4001V19.88C62.6401 20.14 63.1701 19.88 63.4401 20.03L63.4001 20.37H59.8801V20H60.9201V12.45L58.3301 20.34L58.0701 20.38L55.4401 12.38V20H56.5501L56.5201 20.3C56.4701 20.38 56.3801 20.36 56.3001 20.37C55.9301 20.41 54.4101 20.43 54.0801 20.37C53.8601 20.33 53.89 20.2 53.89 20H55V11.86H53.89V11.85Z" fill="#91854F"/>
<path d="M71.28 11.3999V15.3999C71.4 15.3699 71.41 15.1799 71.5 15.0699C72.69 13.5999 74.58 14.5599 75.16 16.0699C75.58 17.1599 75.47 18.3899 74.84 19.3799C73.96 20.7699 72.08 21.1099 71.27 19.4799C71.15 19.4599 71.2 19.5799 71.2 19.6599C71.19 19.9199 71.21 20.1799 71.2 20.4399L68.91 20.3699V19.9999H69.95V11.8599H68.91L69.03 11.4999L71.28 11.4199V11.3999ZM72.75 14.6799C71.06 14.8699 71.09 17.7799 71.45 18.9699C71.81 20.1599 73.4 20.9099 73.78 19.4099C73.95 18.7299 73.97 15.9799 73.75 15.3399C73.58 14.8499 73.28 14.6199 72.75 14.6799Z" fill="#91854F"/>
<path d="M80.46 11.3999V19.9899H81.35V20.3599H75.43V19.9899H76.32V14.9899C76.19 14.7599 75.35 14.9499 75.28 14.8799V14.5799L77.65 14.5099V19.9899H79.13V11.8499H78.09L78.21 11.4899L80.46 11.4099V11.3999Z" fill="#91854F"/>
<path d="M43.01 11.3999V19.9899H43.97L43.85 20.3499C43.34 20.3799 42.82 20.3499 42.3 20.3499C42.16 20.3499 41.95 20.4499 41.87 20.4199C41.68 20.3699 41.76 19.8299 41.75 19.6499C41.75 19.5699 41.8 19.4499 41.68 19.4699C41.58 19.8799 41.08 20.3099 40.7 20.4499C38.9 21.0999 37.52 18.9599 37.53 17.3599C37.55 15.5699 39.19 13.5799 41.05 14.6599L41.68 15.3999V11.8499H40.72V11.4799L43.02 11.4099L43.01 11.3999ZM39.95 14.6699C39.24 14.7699 39.12 15.5099 39.08 16.0999C39.02 16.8299 38.99 19.2799 39.34 19.8399C39.69 20.3999 40.55 20.2699 41 19.8799C41.9 19.0799 41.92 15.9699 41.11 15.1199C40.87 14.8699 40.31 14.6399 39.95 14.6799V14.6699Z" fill="#91854F"/>
<path d="M64.03 8.65989H64.92V9.02989H61.89V8.65989H62.7V4.25987C62.7 4.10987 62.48 3.66989 62.33 3.59989C61.69 3.28989 61.09 3.80991 60.75 4.30991C60.62 4.48991 60.26 5.18992 60.26 5.37992V8.6699H61.15V9.0399H58.04V8.7899L58.16 8.67991H58.93V3.63987H58.02C57.77 3.45987 57.89 3.29988 58.15 3.26988C58.79 3.19988 59.53 3.35987 60.19 3.19987V4.6099L60.64 3.90989C61.31 2.86989 63.37 2.63989 63.89 3.90989C63.93 3.99989 64.05 4.3599 64.05 4.4199V8.67991L64.03 8.65989Z" fill="#91854F"/>
<path d="M46.9301 8.06986L46.2601 8.9199C44.9501 9.8299 43.1101 8.9199 43.6201 7.2399C44.0201 5.9299 45.7801 5.77987 46.9301 5.69987C46.8501 5.18987 47.0901 3.96988 46.7801 3.58988C46.4901 3.22988 45.3901 3.40987 45.0401 3.69987C44.8501 4.00987 45.5101 4.27988 45.2201 4.83988C44.8901 5.47988 43.9901 5.1999 43.9701 4.4799C43.9201 2.9499 47.6501 2.52988 48.1601 3.70988C48.2301 3.86988 48.2601 4.08986 48.2701 4.25986C48.3801 5.55986 48.1701 6.99986 48.2801 8.31986C48.4901 9.02986 48.9801 8.41987 49.1101 8.44987C49.5901 8.54987 48.7301 9.12987 48.5201 9.19987C47.5801 9.48987 47.0201 9.01988 46.9201 8.08988L46.9301 8.06986ZM46.9301 6.06986C45.9301 6.02986 44.8301 6.31986 44.8501 7.50986C44.8801 8.82986 46.1301 9.0899 46.6701 7.9199C46.7101 7.8199 46.9301 7.18987 46.9301 7.13987V6.06986Z" fill="#91854F"/>
<path d="M53.2501 8.4899C50.2001 5.5699 54.6901 0.859869 57.3301 4.07987C59.7401 7.01987 55.9101 11.0299 53.2501 8.4899ZM54.7601 3.4199C54.3301 3.4999 54.0201 3.94989 53.9101 4.34989C53.7301 5.00989 53.7301 7.39989 53.9501 8.03989C54.0801 8.43989 54.3201 8.7799 54.7601 8.8599C55.5701 9.0099 56.1801 8.78987 56.4201 7.95987C56.6601 7.12987 56.6501 4.89987 56.3701 4.13987C56.1201 3.44987 55.4301 3.2899 54.7601 3.4199Z" fill="#91854F"/>
<path d="M65.71 14.38C69.92 13.72 70.28 20.41 66.36 20.58C62.76 20.74 62.33 14.91 65.71 14.38ZM66.08 14.68C65.02 14.8 64.9 15.83 64.84 16.7C64.79 17.43 64.79 19.14 65.21 19.73C65.63 20.32 66.71 20.38 67.2 19.87C67.69 19.36 67.7 17.4 67.65 16.69C67.58 15.68 67.38 14.53 66.08 14.67V14.68Z" fill="#91854F"/>
<path d="M51.44 11.3999V19.9899H52.41L52.29 20.3599H49.3V19.9899H50.11V11.8499H49.15V11.4699L51.44 11.3999Z" fill="#91854F"/>
<path d="M70.02 5.78H66.24V7.74002C66.24 8.16002 66.72 8.81003 67.17 8.88003C68.43 9.07003 69.48 8.31001 69.79 7.11001L70.09 7.23001C68.93 11.22 63.52 8.79999 64.92 5.08999C66.05 2.08999 69.97 2.48 70.01 5.78H70.02ZM68.62 5.41V4.33999C68.62 4.04999 68.31 3.57 68.01 3.47C66.57 3 66.08 4.2 66.25 5.41H68.62Z" fill="#91854F"/>
<path d="M50.19 0.630005C50.13 0.420005 49.35 0.549958 49.15 0.519958V0.219971C49.89 0.219971 50.63 0.239976 51.37 0.0999756L51.52 0.179993L51.45 8.65997H52.41V9.02997H49.3V8.65997H50.19V0.630005Z" fill="#91854F"/>
<path d="M49.2199 17.0299H45.4399V18.9899C45.4399 19.2799 45.78 19.8499 46.04 20.0199C47.11 20.7199 48.8 19.61 49.01 18.44C49.6 18.27 49.1199 19.1199 48.9899 19.3399C47.2299 22.2999 42.55 19.4899 44.29 16.0399C45.64 13.3599 49.2 13.9699 49.23 17.0199L49.2199 17.0299ZM47.82 16.7299V15.5799C47.82 15.0799 47.2299 14.6499 46.7499 14.6499C45.5199 14.6499 45.38 15.7399 45.45 16.7299H47.82Z" fill="#91854F"/>
<path d="M76.34 12.09C76.99 11.36 78.19 12.37 77.5 13.14C76.81 13.91 75.66 12.85 76.34 12.09Z" fill="#91854F"/>
<path d="M47.7201 23.19C48.8901 22.89 49.1501 24.6099 48.0501 24.7099C47.1101 24.7999 46.9301 23.39 47.7201 23.19Z" fill="#91854F"/>
<path d="M17.02 20.0601C17.7 19.8601 19.06 21.23 18.69 21.76C18.21 22.46 17.12 20.4001 17.02 20.0601Z" fill="#91854F"/>
<path d="M14.86 12.0099C15.5 11.9099 16.46 12.3599 16.83 12.8899C18.01 14.5699 15.2 14.3499 14.52 12.9799C14.3 12.5299 14.25 12.1099 14.86 12.0099Z" fill="#91854F"/>
</svg>
