<svg width="80" height="80" viewBox="0 0 80 80" fill="none" xmlns="http://www.w3.org/2000/svg">
<circle cx="40" cy="40" r="40" fill="#91854F"/>
<path d="M27.2593 42.8382L17.9676 39.7798C17.9676 39.7798 16.8572 39.3246 17.2147 38.2926C17.2883 38.0797 17.4368 37.8987 17.881 37.5874C19.9398 36.1377 55.9874 23.0486 55.9874 23.0486C55.9874 23.0486 57.0052 22.7022 57.6055 22.9326C57.754 22.979 57.8876 23.0645 57.9927 23.1802C58.0978 23.296 58.1705 23.4378 58.2035 23.5913C58.2684 23.8623 58.2955 24.1412 58.2841 24.4198C58.2813 24.6609 58.2524 24.8843 58.2305 25.2346C58.011 28.8132 51.4409 55.5215 51.4409 55.5215C51.4409 55.5215 51.0478 57.0843 49.6394 57.1379C49.2933 57.1492 48.9485 57.0899 48.6255 56.9637C48.3025 56.8375 48.008 56.6469 47.7596 56.4032C44.9958 54.0016 35.4433 47.5162 33.3325 46.0899C33.2849 46.0571 33.2448 46.0144 33.2149 45.9646C33.185 45.9149 33.1661 45.8592 33.1593 45.8014C33.1298 45.6511 33.2916 45.4649 33.2916 45.4649C33.2916 45.4649 49.9249 30.5286 50.3675 28.9606C50.4018 28.8392 50.2724 28.7792 50.0985 28.8324C48.9937 29.243 29.8425 41.4609 27.7288 42.8093C27.5767 42.8558 27.4159 42.8657 27.2593 42.8382Z" fill="white"/>
</svg>
